<svg width="717" height="543" viewBox="0 0 717 543" fill="none" xmlns="http://www.w3.org/2000/svg">
<g opacity="0.5" filter="url(#filter0_d_787_11012)">
<path fill-rule="evenodd" clip-rule="evenodd" d="M5.36766 64.9763L12.2131 59.078V52.9292H5.36766V52.9266H4.31329V167.753L88.8381 218.542L101.729 258.852L180.835 311.628L217.822 311.631V310.657H182.03L102.44 257.098L89.5413 216.76L5.36766 166.181V75.1524L5.77715 75.4548L5.88171 75.532L5.88171 75.402L5.8817 72.7933L5.46345 72.375L5.36766 72.2792V64.9763ZM10.8954 81.3149C11.5663 81.3149 12.1073 80.7803 12.1073 80.1244C12.1073 79.4684 11.5663 78.9338 10.8954 78.9338C10.2245 78.9338 9.68356 79.4684 9.68356 80.1244C9.68356 80.7803 10.2245 81.3149 10.8954 81.3149ZM10.8954 81.4195C11.6225 81.4195 12.2118 80.8396 12.2118 80.1244C12.2118 79.4091 11.6225 78.8292 10.8954 78.8292C10.1684 78.8292 9.579 79.4091 9.579 80.1244C9.579 80.8396 10.1684 81.4195 10.8954 81.4195ZM12.1073 87.8951C12.1073 88.551 11.5663 89.0857 10.8954 89.0857C10.2245 89.0857 9.68356 88.551 9.68356 87.8951C9.68356 87.2392 10.2245 86.7045 10.8954 86.7045C11.5663 86.7045 12.1073 87.2392 12.1073 87.8951ZM12.2118 87.8951C12.2118 88.6104 11.6225 89.1902 10.8954 89.1902C10.1684 89.1902 9.579 88.6104 9.579 87.8951C9.579 87.1798 10.1684 86.6 10.8954 86.6C11.6225 86.6 12.2118 87.1798 12.2118 87.8951ZM93.83 223.884H96.6654L99.0957 231.654H96.2604L93.83 223.884ZM47.7063 102.593H48.7519V104.684H47.7063V102.593ZM47.1835 102.07H47.7063H48.7519H49.2747V102.593V104.684V105.207H48.7519H47.7063H47.1835V104.684V102.593V102.07ZM47.7063 101.548H47.1835V101.025H47.7063H48.7519H49.2747V101.548H48.7519H47.7063ZM47.1835 100.502H47.7063H48.7519H49.2747V99.9792H48.7519H47.7063H47.1835V100.502ZM47.7063 95.2739H47.1835V94.7511H47.7063H48.7519H49.2747V95.2739H48.7519H47.7063ZM50.3203 104.684H50.8431V105.207H50.3203V104.684ZM51.8888 104.684H51.366V105.207H51.8888V104.684ZM19.4747 88.4774C19.7635 88.4774 19.9975 88.2434 19.9975 87.9546C19.9975 87.6659 19.7635 87.4318 19.4747 87.4318C19.186 87.4318 18.9519 87.6659 18.9519 87.9546C18.9519 88.2434 19.186 88.4774 19.4747 88.4774ZM28.8852 95.2739C28.8852 95.5627 28.6511 95.7967 28.3624 95.7967C28.0737 95.7967 27.8396 95.5627 27.8396 95.2739C27.8396 94.9852 28.0737 94.7511 28.3624 94.7511C28.6511 94.7511 28.8852 94.9852 28.8852 95.2739ZM37.6071 103.088L39.2474 103.13L41.3315 104.529L39.6912 104.487L37.6071 103.088ZM39.2804 103.026L41.5265 104.534L41.6885 104.643L41.4935 104.638L39.6581 104.591L37.4121 103.083L37.2501 102.974L37.4451 102.979L39.2804 103.026ZM5.77714 72.8366L5.46345 72.5229L5.46346 75.0931L5.77715 75.3248L5.77714 72.8366ZM53.0388 83.7524C53.0388 80.2681 55.7018 77.4057 59.1033 77.0895V82.215C58.2763 82.3296 57.6396 83.0394 57.6396 83.8979C57.6396 84.7565 58.2763 85.4663 59.1033 85.5809V90.4153C55.7018 90.099 53.0388 87.2366 53.0388 83.7524ZM59.2079 77.0806V82.2037V85.5921V90.4242V90.529C59.173 90.5264 59.1381 90.5235 59.1033 90.5203C55.6439 90.2036 52.9343 87.2944 52.9343 83.7524C52.9343 80.2103 55.6439 77.3011 59.1033 76.9845C59.1381 76.9813 59.173 76.9784 59.2079 76.9757V77.0806ZM59.2079 82.2037L59.208 85.5921V82.2037L59.2079 82.2037ZM48.2291 97.888C48.5178 97.888 48.7519 97.6539 48.7519 97.3652C48.7519 97.0764 48.5178 96.8424 48.2291 96.8424C47.9403 96.8424 47.7062 97.0764 47.7062 97.3652C47.7062 97.6539 47.9403 97.888 48.2291 97.888Z" fill="url(#paint0_radial_787_11012)"/>
<path fill-rule="evenodd" clip-rule="evenodd" d="M711.354 64.9763L703.595 59.078V52.9293H711.354V52.9266H712.549V167.753L616.754 218.542L602.145 258.852L512.491 311.628L470.572 311.631V310.657H511.136L601.339 257.098L615.957 216.76L711.354 166.181V75.2562L711.085 75.4548L710.98 75.532L710.98 75.4021L710.98 72.7933L711.354 72.4198V64.9763ZM711.085 75.3248L711.354 75.1262V72.5677L711.085 72.8366L711.085 75.3248ZM705.089 81.315C704.308 81.315 703.701 80.7685 703.701 80.1244C703.701 79.4803 704.308 78.9338 705.089 78.9338C705.869 78.9338 706.476 79.4803 706.476 80.1244C706.476 80.7685 705.869 81.315 705.089 81.315ZM705.089 81.4195C704.265 81.4195 703.597 80.8397 703.597 80.1244C703.597 79.4091 704.265 78.8293 705.089 78.8293C705.913 78.8293 706.581 79.4091 706.581 80.1244C706.581 80.8397 705.913 81.4195 705.089 81.4195ZM703.701 87.8951C703.701 88.5392 704.308 89.0857 705.089 89.0857C705.869 89.0857 706.476 88.5392 706.476 87.8951C706.476 87.251 705.869 86.7045 705.089 86.7045C704.308 86.7045 703.701 87.251 703.701 87.8951ZM703.597 87.8951C703.597 88.6104 704.265 89.1902 705.089 89.1902C705.913 89.1902 706.581 88.6104 706.581 87.8951C706.581 87.1798 705.913 86.6 705.089 86.6C704.265 86.6 703.597 87.1798 703.597 87.8951ZM611.096 223.884H607.883L605.128 231.655H608.342L611.096 223.884ZM669.156 102.593H668.11V104.684H669.156V102.593ZM669.678 102.07H669.156H668.11H667.587V102.593V104.684V105.207H668.11H669.156H669.678V104.684V102.593V102.07ZM669.156 101.548H669.678V101.025H669.156H668.11H667.587V101.548H668.11H669.156ZM669.678 100.502H669.156H668.11H667.587V99.9792H668.11H669.156H669.678V100.502ZM669.156 95.2739H669.678V94.7511H669.156H668.11H667.587V95.2739H668.11H669.156ZM666.542 104.684H666.019V105.207H666.542V104.684ZM664.973 104.684H665.496V105.207H664.973V104.684ZM697.387 88.4775C697.098 88.4775 696.864 88.2434 696.864 87.9547C696.864 87.6659 697.098 87.4319 697.387 87.4319C697.676 87.4319 697.91 87.6659 697.91 87.9547C697.91 88.2434 697.676 88.4775 697.387 88.4775ZM687.977 95.274C687.977 95.5627 688.211 95.7968 688.499 95.7968C688.788 95.7968 689.022 95.5627 689.022 95.274C689.022 94.9852 688.788 94.7512 688.499 94.7512C688.211 94.7512 687.977 94.9852 687.977 95.274ZM679.255 103.088L677.614 103.13L675.53 104.529L677.171 104.487L679.255 103.088ZM677.581 103.026L675.335 104.534L675.173 104.643L675.368 104.638L677.204 104.591L679.45 103.083L679.612 102.974L679.417 102.979L677.581 103.026ZM663.823 83.7524C663.823 80.2681 661.16 77.4057 657.758 77.0895V82.215C658.585 82.3295 659.222 83.0394 659.222 83.8979C659.222 84.7565 658.585 85.4663 657.758 85.5809V90.4153C661.16 90.0991 663.823 87.2367 663.823 83.7524ZM657.654 85.5921V82.2038V77.0806V76.9757C657.689 76.9784 657.724 76.9813 657.758 76.9845C661.218 77.3011 663.928 80.2103 663.928 83.7524C663.928 87.2945 661.218 90.2037 657.758 90.5203C657.724 90.5235 657.689 90.5264 657.654 90.5291V90.4242V85.5921ZM668.633 97.888C668.344 97.888 668.11 97.6539 668.11 97.3652C668.11 97.0765 668.344 96.8424 668.633 96.8424C668.922 96.8424 669.156 97.0765 669.156 97.3652C669.156 97.6539 668.922 97.888 668.633 97.888Z" fill="url(#paint1_radial_787_11012)"/>
<path fill-rule="evenodd" clip-rule="evenodd" d="M177.267 185.067L180.779 182.041V178.886H177.267V178.884H176.726V237.804L220.097 263.865L226.712 284.549L267.303 311.629L286.282 311.631V311.131H267.916L227.076 283.649L220.458 262.951L177.267 236.997V185.067ZM180.103 193.4C180.42 193.4 180.674 193.148 180.674 192.84C180.674 192.532 180.42 192.28 180.103 192.28C179.786 192.28 179.532 192.532 179.532 192.84C179.532 193.148 179.786 193.4 180.103 193.4ZM180.103 193.505C180.476 193.505 180.779 193.207 180.779 192.84C180.779 192.473 180.476 192.175 180.103 192.175C179.73 192.175 179.428 192.473 179.428 192.84C179.428 193.207 179.73 193.505 180.103 193.505ZM180.674 196.827C180.674 197.135 180.42 197.387 180.103 197.387C179.786 197.387 179.532 197.135 179.532 196.827C179.532 196.52 179.786 196.267 180.103 196.267C180.42 196.267 180.674 196.52 180.674 196.827ZM180.779 196.827C180.779 197.194 180.476 197.492 180.103 197.492C179.73 197.492 179.428 197.194 179.428 196.827C179.428 196.46 179.73 196.163 180.103 196.163C180.476 196.163 180.779 196.46 180.779 196.827ZM222.659 266.606H224.113L225.36 270.593H223.906L222.659 266.606ZM220.119 228.551H221.164V230.642H220.119V228.551ZM219.596 228.028H220.119H221.164H221.687V228.551V230.642V231.165H221.164H220.119H219.596V230.642V228.551V228.028ZM220.119 227.505H219.596V226.982H220.119H221.164H221.687V227.505H221.164H220.119ZM219.596 226.46H220.119H221.164H221.687V225.937H221.164H220.119H219.596V226.46ZM220.119 221.232H219.596V220.709H220.119H221.164H221.687V221.232H221.164H220.119ZM222.733 230.642H223.256V231.165H222.733V230.642ZM224.301 230.642H223.778V231.165H224.301V230.642ZM191.887 214.435C192.176 214.435 192.41 214.201 192.41 213.912C192.41 213.624 192.176 213.39 191.887 213.39C191.598 213.39 191.364 213.624 191.364 213.912C191.364 214.201 191.598 214.435 191.887 214.435ZM201.298 221.232C201.298 221.52 201.064 221.754 200.775 221.754C200.486 221.754 200.252 221.52 200.252 221.232C200.252 220.943 200.486 220.709 200.775 220.709C201.064 220.709 201.298 220.943 201.298 221.232ZM210.02 229.046L211.66 229.088L213.744 230.487L212.104 230.445L210.02 229.046ZM211.693 228.984L213.939 230.492L214.101 230.601L213.906 230.596L212.071 230.549L209.824 229.041L209.663 228.932L209.858 228.937L211.693 228.984ZM178.19 198.794L177.876 198.481L177.876 201.051L178.19 201.282L178.19 198.794ZM178.294 201.36L178.294 198.751L177.876 198.333L177.771 198.228L177.771 198.376L177.771 201.104L178.19 201.412L178.294 201.49L178.294 201.36ZM225.451 209.71C225.451 206.226 228.114 203.363 231.516 203.047V208.173C230.689 208.287 230.052 208.997 230.052 209.856C230.052 210.714 230.689 211.424 231.516 211.539V216.373C228.114 216.057 225.451 213.194 225.451 209.71ZM225.347 209.71C225.347 206.168 228.056 203.259 231.516 202.942C231.551 202.939 231.586 202.936 231.62 202.933V203.038V216.382V216.487C231.586 216.484 231.551 216.481 231.516 216.478C228.056 216.161 225.347 213.252 225.347 209.71ZM220.641 223.846C220.93 223.846 221.164 223.612 221.164 223.323C221.164 223.034 220.93 222.8 220.641 222.8C220.353 222.8 220.119 223.034 220.119 223.323C220.119 223.612 220.353 223.846 220.641 223.846Z" fill="url(#paint2_radial_787_11012)"/>
<path fill-rule="evenodd" clip-rule="evenodd" d="M539.523 185.067L535.543 182.041V178.886H539.523V178.884H540.137V237.804L490.982 263.865L483.486 284.549L437.483 311.629L415.973 311.631V311.131H436.788L483.072 283.649L490.573 262.951L539.523 236.997V185.067ZM536.309 193.4C535.929 193.4 535.648 193.136 535.648 192.84C535.648 192.544 535.929 192.28 536.309 192.28C536.688 192.28 536.97 192.544 536.97 192.84C536.97 193.136 536.688 193.4 536.309 193.4ZM536.309 193.505C535.886 193.505 535.543 193.207 535.543 192.84C535.543 192.473 535.886 192.175 536.309 192.175C536.732 192.175 537.074 192.473 537.074 192.84C537.074 193.207 536.732 193.505 536.309 193.505ZM535.648 196.827C535.648 197.123 535.929 197.387 536.309 197.387C536.688 197.387 536.97 197.123 536.97 196.827C536.97 196.531 536.688 196.267 536.309 196.267C535.929 196.267 535.648 196.531 535.648 196.827ZM535.543 196.827C535.543 197.194 535.886 197.492 536.309 197.492C536.732 197.492 537.074 197.194 537.074 196.827C537.074 196.46 536.732 196.163 536.309 196.163C535.886 196.163 535.543 196.46 535.543 196.827ZM488.079 266.606H486.43L485.017 270.593H486.666L488.079 266.606ZM496.744 228.551H495.698V230.642H496.744V228.551ZM497.266 228.028H496.744H495.698H495.175V228.551V230.642V231.165H495.698H496.744H497.266V230.642V228.551V228.028ZM496.744 227.505H497.266V226.982H496.744H495.698H495.175V227.505H495.698H496.744ZM497.266 226.46H496.744H495.698H495.175V225.937H495.698H496.744H497.266V226.46ZM496.744 221.232H497.266V220.709H496.744H495.698H495.175V221.232H495.698H496.744ZM494.13 230.642H493.607V231.165H494.13V230.642ZM492.561 230.642H493.084V231.165H492.561V230.642ZM524.975 214.435C524.686 214.435 524.452 214.201 524.452 213.912C524.452 213.624 524.686 213.39 524.975 213.39C525.264 213.39 525.498 213.624 525.498 213.912C525.498 214.201 525.264 214.435 524.975 214.435ZM515.565 221.232C515.565 221.52 515.799 221.754 516.087 221.754C516.376 221.754 516.61 221.52 516.61 221.232C516.61 220.943 516.376 220.709 516.087 220.709C515.799 220.709 515.565 220.943 515.565 221.232ZM506.843 229.046L505.203 229.088L503.118 230.487L504.759 230.445L506.843 229.046ZM505.169 228.984L502.923 230.492L502.761 230.601L502.956 230.596L504.792 230.549L507.038 229.041L507.2 228.932L507.005 228.937L505.169 228.984ZM538.673 198.794L538.986 198.481L538.986 201.051L538.673 201.282L538.673 198.794ZM538.568 201.36L538.568 198.751L538.986 198.333L539.091 198.228L539.091 198.376L539.091 201.104L538.673 201.412L538.568 201.49L538.568 201.36ZM491.411 209.71C491.411 206.226 488.748 203.363 485.346 203.047V208.173C486.173 208.287 486.81 208.997 486.81 209.856C486.81 210.714 486.173 211.424 485.346 211.539V216.373C488.748 216.057 491.411 213.194 491.411 209.71ZM491.516 209.71C491.516 206.168 488.806 203.259 485.346 202.942C485.312 202.939 485.277 202.936 485.242 202.933V203.038V216.382V216.487C485.277 216.484 485.312 216.481 485.346 216.478C488.806 216.161 491.516 213.252 491.516 209.71ZM496.221 223.846C495.932 223.846 495.698 223.612 495.698 223.323C495.698 223.034 495.932 222.8 496.221 222.8C496.51 222.8 496.744 223.034 496.744 223.323C496.744 223.612 496.51 223.846 496.221 223.846Z" fill="url(#paint3_radial_787_11012)"/>
<g clip-path="url(#clip0_787_11012)">
<path fill-rule="evenodd" clip-rule="evenodd" d="M158.644 150.516L158.644 4.1687H160.168V4.17208H170.063V12.0087L160.168 19.5261V148.513L281.831 212.976L300.474 264.387L415.513 332.649H467.246V333.89L413.785 333.887L299.446 266.623L280.815 215.248L158.644 150.516Z" fill="url(#paint4_linear_787_11012)"/>
<g filter="url(#filter1_f_787_11012)">
<path fill-rule="evenodd" clip-rule="evenodd" d="M158.644 150.516L158.644 4.1687H160.168V4.17208H170.063V12.0087L160.168 19.5261V148.513L281.831 212.976L300.474 264.387L415.513 332.649H467.246V333.89L413.785 333.887L299.446 266.623L280.815 215.248L158.644 150.516Z" fill="url(#paint5_linear_787_11012)"/>
</g>
<path d="M170.009 38.8325C170.009 39.7085 169.187 40.4309 168.158 40.4309C167.129 40.4309 166.308 39.7085 166.308 38.8325C166.308 37.9565 167.129 37.2341 168.158 37.2341C169.187 37.2341 170.009 37.9565 170.009 38.8325Z" stroke="url(#paint6_linear_787_11012)" stroke-width="0.104561"/>
<path d="M170.009 48.7364C170.009 49.6124 169.187 50.3348 168.158 50.3348C167.129 50.3348 166.308 49.6124 166.308 48.7364C166.308 47.8604 167.129 47.138 168.158 47.138C169.187 47.138 170.009 47.8604 170.009 48.7364Z" stroke="url(#paint7_linear_787_11012)" stroke-width="0.104561"/>
<path d="M288.03 222.055H292.128L295.641 231.959H291.543L288.03 222.055Z" fill="url(#paint8_linear_787_11012)"/>
<g filter="url(#filter2_f_787_11012)">
<rect x="288.039" y="42.595" width="1.56842" height="2.61403" stroke="url(#paint9_linear_787_11012)" stroke-width="0.522807"/>
</g>
<g filter="url(#filter3_f_787_11012)">
<rect x="0.130702" y="-0.130702" width="1.82982" height="0.261403" transform="matrix(1 0 0 -1 287.778 41.5494)" stroke="url(#paint10_linear_787_11012)" stroke-width="0.261403"/>
</g>
<g filter="url(#filter4_f_787_11012)">
<rect x="0.130702" y="-0.130702" width="1.82982" height="0.261403" transform="matrix(1 0 0 -1 287.778 40.5038)" stroke="url(#paint11_linear_787_11012)" stroke-width="0.261403"/>
</g>
<g filter="url(#filter5_f_787_11012)">
<rect x="0.130702" y="-0.130702" width="1.82982" height="0.261403" transform="matrix(1 0 0 -1 287.778 35.2757)" stroke="url(#paint12_linear_787_11012)" stroke-width="0.261403"/>
</g>
<rect x="288.039" y="42.595" width="1.56842" height="2.61403" stroke="url(#paint13_linear_787_11012)" stroke-width="0.522807"/>
<rect x="0.130702" y="-0.130702" width="1.82982" height="0.261403" transform="matrix(1 0 0 -1 287.778 41.5494)" stroke="url(#paint14_linear_787_11012)" stroke-width="0.261403"/>
<rect x="0.130702" y="-0.130702" width="1.82982" height="0.261403" transform="matrix(1 0 0 -1 287.778 40.5038)" stroke="url(#paint15_linear_787_11012)" stroke-width="0.261403"/>
<rect x="0.130702" y="-0.130702" width="1.82982" height="0.261403" transform="matrix(1 0 0 -1 287.778 35.2757)" stroke="url(#paint16_linear_787_11012)" stroke-width="0.261403"/>
<rect x="291.045" y="45.0783" width="0.261403" height="0.261403" stroke="url(#paint17_linear_787_11012)" stroke-width="0.261403"/>
<rect x="292.091" y="45.0783" width="0.261403" height="0.261403" stroke="url(#paint18_linear_787_11012)" stroke-width="0.261403"/>
<circle cx="173.806" cy="39.1968" r="0.522807" fill="url(#paint19_linear_787_11012)"/>
<circle cx="182.694" cy="46.516" r="0.522807" fill="url(#paint20_linear_787_11012)"/>
<path d="M191.76 54.2732L193.595 54.3202L195.841 55.8282L194.006 55.7813L191.76 54.2732Z" stroke="url(#paint21_linear_787_11012)" stroke-width="0.104561"/>
<path d="M159.742 23.6388L160.161 24.057L160.161 26.6705L159.742 26.3616L159.742 23.6388Z" stroke="url(#paint22_linear_787_11012)" stroke-width="0.104561"/>
<mask id="path-24-inside-1_787_11012" fill="white">
<path fill-rule="evenodd" clip-rule="evenodd" d="M213.539 28.2178C210.03 28.4848 207.265 31.4168 207.265 34.9945C207.265 38.5721 210.03 41.5042 213.539 41.7711V28.2178Z"/>
</mask>
<path d="M213.539 28.2178H213.644V28.105L213.531 28.1135L213.539 28.2178ZM213.539 41.7711L213.531 41.8754L213.644 41.884V41.7711H213.539ZM207.37 34.9945C207.37 31.4719 210.092 28.5849 213.547 28.3221L213.531 28.1135C209.968 28.3846 207.161 31.3617 207.161 34.9945H207.37ZM213.547 41.6669C210.092 41.404 207.37 38.5171 207.37 34.9945H207.161C207.161 38.6272 209.968 41.6043 213.531 41.8754L213.547 41.6669ZM213.644 41.7711V28.2178H213.435V41.7711H213.644Z" fill="url(#paint23_linear_787_11012)" mask="url(#path-24-inside-1_787_11012)"/>
<g filter="url(#filter6_f_787_11012)">
<mask id="path-26-inside-2_787_11012" fill="white">
<path fill-rule="evenodd" clip-rule="evenodd" d="M213.539 28.2178C210.03 28.4848 207.265 31.4168 207.265 34.9945C207.265 38.5721 210.03 41.5042 213.539 41.7711V28.2178Z"/>
</mask>
<path d="M213.539 28.2178H213.644V28.105L213.531 28.1135L213.539 28.2178ZM213.539 41.7711L213.531 41.8754L213.644 41.884V41.7711H213.539ZM207.37 34.9945C207.37 31.4719 210.092 28.5849 213.547 28.3221L213.531 28.1135C209.968 28.3846 207.161 31.3617 207.161 34.9945H207.37ZM213.547 41.6669C210.092 41.404 207.37 38.5171 207.37 34.9945H207.161C207.161 38.6272 209.968 41.6043 213.531 41.8754L213.547 41.6669ZM213.644 41.7711V28.2178H213.435V41.7711H213.644Z" fill="url(#paint24_linear_787_11012)" mask="url(#path-26-inside-2_787_11012)"/>
</g>
<mask id="path-28-inside-3_787_11012" fill="white">
<path fill-rule="evenodd" clip-rule="evenodd" d="M213.539 33.4459C212.662 33.5126 211.971 34.2456 211.971 35.14C211.971 36.0344 212.662 36.7675 213.539 36.8342V33.4459Z"/>
</mask>
<path fill-rule="evenodd" clip-rule="evenodd" d="M213.539 33.4459C212.662 33.5126 211.971 34.2456 211.971 35.14C211.971 36.0344 212.662 36.7675 213.539 36.8342V33.4459Z" fill="url(#paint25_linear_787_11012)"/>
<path d="M213.539 33.4459H213.644V33.333L213.531 33.3416L213.539 33.4459ZM213.539 36.8342L213.531 36.9385L213.644 36.947V36.8342H213.539ZM212.075 35.14C212.075 34.3007 212.724 33.6128 213.547 33.5501L213.531 33.3416C212.6 33.4125 211.866 34.1905 211.866 35.14H212.075ZM213.547 36.7299C212.724 36.6673 212.075 35.9794 212.075 35.14H211.866C211.866 36.0895 212.6 36.8676 213.531 36.9385L213.547 36.7299ZM213.644 36.8342V33.4459H213.435V36.8342H213.644Z" fill="url(#paint26_linear_787_11012)" mask="url(#path-28-inside-3_787_11012)"/>
<g filter="url(#filter7_f_787_11012)">
<mask id="path-30-inside-4_787_11012" fill="white">
<path fill-rule="evenodd" clip-rule="evenodd" d="M213.539 33.4459C212.662 33.5126 211.971 34.2456 211.971 35.14C211.971 36.0344 212.662 36.7675 213.539 36.8342V33.4459Z"/>
</mask>
<path fill-rule="evenodd" clip-rule="evenodd" d="M213.539 33.4459C212.662 33.5126 211.971 34.2456 211.971 35.14C211.971 36.0344 212.662 36.7675 213.539 36.8342V33.4459Z" fill="url(#paint27_linear_787_11012)"/>
<path d="M213.539 33.4459H213.644V33.333L213.531 33.3416L213.539 33.4459ZM213.539 36.8342L213.531 36.9385L213.644 36.947V36.8342H213.539ZM212.075 35.14C212.075 34.3007 212.724 33.6128 213.547 33.5501L213.531 33.3416C212.6 33.4125 211.866 34.1905 211.866 35.14H212.075ZM213.547 36.7299C212.724 36.6673 212.075 35.9794 212.075 35.14H211.866C211.866 36.0895 212.6 36.8676 213.531 36.9385L213.547 36.7299ZM213.644 36.8342V33.4459H213.435V36.8342H213.644Z" fill="url(#paint28_linear_787_11012)" mask="url(#path-30-inside-4_787_11012)"/>
</g>
<circle cx="288.823" cy="37.6283" r="0.522807" fill="url(#paint29_linear_787_11012)"/>
</g>
</g>
<g opacity="0.5" filter="url(#filter8_d_787_11012)">
<path fill-rule="evenodd" clip-rule="evenodd" d="M633.97 530.406L629.216 534.502V538.772H633.97V538.774H634.702V459.027L576 423.753L567.047 395.758L512.107 359.105L486.42 359.103V359.779H511.277L566.553 396.977L575.511 424.991L633.97 460.118V530.406ZM630.131 519.09C629.682 519.09 629.321 519.448 629.321 519.885C629.321 520.323 629.682 520.68 630.131 520.68C630.58 520.68 630.941 520.323 630.941 519.885C630.941 519.448 630.58 519.09 630.131 519.09ZM630.131 518.986C629.626 518.986 629.217 519.388 629.217 519.885C629.217 520.382 629.626 520.785 630.131 520.785C630.636 520.785 631.045 520.382 631.045 519.885C631.045 519.388 630.636 518.986 630.131 518.986ZM629.321 514.488C629.321 514.051 629.682 513.693 630.131 513.693C630.58 513.693 630.941 514.051 630.941 514.488C630.941 514.926 630.58 515.283 630.131 515.283C629.682 515.283 629.321 514.926 629.321 514.488ZM629.217 514.488C629.217 513.992 629.626 513.589 630.131 513.589C630.636 513.589 631.045 513.992 631.045 514.488C631.045 514.985 630.636 515.388 630.131 515.388C629.626 515.388 629.217 514.985 629.217 514.488ZM572.533 420.044H570.563L568.876 414.647H570.845L572.533 420.044ZM591.309 489.107H590.264V487.016H591.309V489.107ZM591.832 489.63H591.309H590.264H589.741V489.107V487.016V486.493H590.264H591.309H591.832V487.016V489.107V489.63ZM591.309 490.153H591.832V490.676H591.309H590.264H589.741V490.153H590.264H591.309ZM591.832 491.199H591.309H590.264H589.741V491.721H590.264H591.309H591.832V491.199ZM591.309 496.427H591.832V496.95H591.309H590.264H589.741V496.427H590.264H591.309ZM588.695 487.016H588.173V486.493H588.695V487.016ZM587.127 487.016H587.65V486.493H587.127V487.016ZM619.541 503.223C619.252 503.223 619.018 503.457 619.018 503.746C619.018 504.035 619.252 504.269 619.541 504.269C619.83 504.269 620.064 504.035 620.064 503.746C620.064 503.457 619.83 503.223 619.541 503.223ZM610.13 496.427C610.13 496.138 610.365 495.904 610.653 495.904C610.942 495.904 611.176 496.138 611.176 496.427C611.176 496.715 610.942 496.949 610.653 496.949C610.365 496.949 610.13 496.715 610.13 496.427ZM601.409 488.613L599.768 488.571L597.684 487.171L599.324 487.213L601.409 488.613ZM599.735 488.674L597.489 487.166L597.327 487.058L597.522 487.063L599.358 487.11L601.604 488.618L601.766 488.726L601.571 488.721L599.735 488.674ZM633.239 518.864L633.552 519.178L633.552 516.608L633.239 516.376L633.239 518.864ZM633.134 516.299L633.134 518.907L633.552 519.326L633.657 519.43L633.657 519.282L633.657 516.555L633.239 516.246L633.134 516.169L633.134 516.299ZM585.977 507.948C585.977 511.433 583.314 514.295 579.912 514.611V509.486C580.739 509.371 581.376 508.661 581.376 507.803C581.376 506.944 580.739 506.234 579.912 506.12V501.285C583.314 501.602 585.977 504.464 585.977 507.948ZM579.808 514.62V509.497V506.109V501.276V501.172C579.843 501.174 579.878 501.177 579.912 501.18C583.372 501.497 586.081 504.406 586.081 507.948C586.081 511.49 583.372 514.4 579.912 514.716C579.878 514.719 579.843 514.722 579.808 514.725V514.62ZM579.808 509.497L579.808 506.109V509.497L579.808 509.497ZM590.787 493.813C590.498 493.813 590.264 494.047 590.264 494.335C590.264 494.624 590.498 494.858 590.787 494.858C591.075 494.858 591.309 494.624 591.309 494.335C591.309 494.047 591.075 493.813 590.787 493.813Z" fill="url(#paint30_radial_787_11012)"/>
<path fill-rule="evenodd" clip-rule="evenodd" d="M143.66 530.406L149.048 534.502V538.772H143.66V538.774H142.83V459.027L209.36 423.753L219.506 395.758L281.771 359.105L310.884 359.103V359.779H282.712L220.066 396.977L209.914 424.991L143.66 460.118V530.406ZM148.011 519.09C148.54 519.09 148.943 519.459 148.943 519.885C148.943 520.311 148.54 520.68 148.011 520.68C147.482 520.68 147.08 520.311 147.08 519.885C147.08 519.459 147.482 519.09 148.011 519.09ZM148.011 518.986C148.583 518.986 149.047 519.388 149.047 519.885C149.047 520.382 148.583 520.785 148.011 520.785C147.439 520.785 146.975 520.382 146.975 519.885C146.975 519.388 147.439 518.986 148.011 518.986ZM148.943 514.488C148.943 514.063 148.54 513.693 148.011 513.693C147.482 513.693 147.08 514.063 147.08 514.488C147.08 514.914 147.482 515.283 148.011 515.283C148.54 515.283 148.943 514.914 148.943 514.488ZM149.047 514.488C149.047 513.992 148.583 513.589 148.011 513.589C147.439 513.589 146.975 513.992 146.975 514.488C146.975 514.985 147.439 515.388 148.011 515.388C148.583 515.388 149.047 514.985 149.047 514.488ZM213.289 420.044H215.521L217.434 414.647H215.202L213.289 420.044ZM186.223 489.107H187.269V487.016H186.223V489.107ZM185.7 489.63H186.223H187.269H187.792V489.107V487.016V486.493H187.269H186.223H185.7V487.016V489.107V489.63ZM186.223 490.153H185.7V490.676H186.223H187.269H187.792V490.153H187.269H186.223ZM185.7 491.199H186.223H187.269H187.792V491.721H187.269H186.223H185.7V491.199ZM186.223 496.427H185.7V496.95H186.223H187.269H187.792V496.427H187.269H186.223ZM188.837 487.016H189.36V486.493H188.837V487.016ZM190.406 487.016H189.883V486.493H190.406V487.016ZM157.992 503.223C158.28 503.223 158.514 503.457 158.514 503.746C158.514 504.035 158.28 504.269 157.992 504.269C157.703 504.269 157.469 504.035 157.469 503.746C157.469 503.457 157.703 503.223 157.992 503.223ZM167.402 496.427C167.402 496.138 167.168 495.904 166.879 495.904C166.591 495.904 166.357 496.138 166.357 496.427C166.357 496.715 166.591 496.949 166.879 496.949C167.168 496.949 167.402 496.715 167.402 496.427ZM176.124 488.613L177.764 488.571L179.849 487.171L178.208 487.213L176.124 488.613ZM177.797 488.674L180.044 487.166L180.205 487.058L180.01 487.063L178.175 487.11L175.929 488.618L175.767 488.726L175.962 488.721L177.797 488.674ZM144.294 518.864L143.98 519.178L143.98 516.608L144.294 516.376L144.294 518.864ZM144.399 516.299L144.399 518.907L143.98 519.326L143.876 519.43L143.876 519.282L143.876 516.555L144.294 516.246L144.399 516.169L144.399 516.299ZM191.556 507.948C191.556 511.433 194.219 514.295 197.62 514.611V509.486C196.793 509.371 196.157 508.661 196.157 507.803C196.157 506.944 196.793 506.234 197.62 506.12V501.285C194.219 501.602 191.556 504.464 191.556 507.948ZM197.725 506.109V509.497V514.62V514.725C197.69 514.722 197.655 514.719 197.62 514.716C194.161 514.4 191.451 511.49 191.451 507.948C191.451 504.406 194.161 501.497 197.62 501.18C197.655 501.177 197.69 501.174 197.725 501.172V501.276V506.109ZM186.746 493.813C187.035 493.813 187.269 494.047 187.269 494.335C187.269 494.624 187.035 494.858 186.746 494.858C186.457 494.858 186.223 494.624 186.223 494.335C186.223 494.047 186.457 493.813 186.746 493.813Z" fill="url(#paint31_radial_787_11012)"/>
<path fill-rule="evenodd" clip-rule="evenodd" d="M514.586 447.002L512.146 449.104V451.295H514.586V451.296H514.961V410.376L484.84 392.276L480.246 377.911L452.055 359.104L438.874 359.103V359.45H451.629L479.993 378.537L484.589 392.911L514.586 410.936V447.002ZM512.616 441.247C512.413 441.247 512.251 441.408 512.251 441.604C512.251 441.799 512.413 441.961 512.616 441.961C512.819 441.961 512.98 441.799 512.98 441.604C512.98 441.408 512.819 441.247 512.616 441.247ZM512.616 441.142C512.357 441.142 512.147 441.349 512.147 441.604C512.147 441.858 512.357 442.065 512.616 442.065C512.875 442.065 513.085 441.858 513.085 441.604C513.085 441.349 512.875 441.142 512.616 441.142ZM512.251 438.834C512.251 438.639 512.413 438.477 512.616 438.477C512.819 438.477 512.98 438.639 512.98 438.834C512.98 439.03 512.819 439.191 512.616 439.191C512.413 439.191 512.251 439.03 512.251 438.834ZM512.147 438.834C512.147 438.579 512.357 438.373 512.616 438.373C512.875 438.373 513.085 438.579 513.085 438.834C513.085 439.089 512.875 439.296 512.616 439.296C512.357 439.296 512.147 439.089 512.147 438.834ZM483.061 390.373H482.05L481.184 387.604H482.195L483.061 390.373ZM471.568 401.629H470.523V399.538H471.568V401.629ZM472.091 402.152H471.568H470.523H470V401.629V399.538V399.015H470.523H471.568H472.091V399.538V401.629V402.152ZM471.568 402.675H472.091V403.198H471.568H470.523H470V402.675H470.523H471.568ZM472.091 403.72H471.568H470.523H470V404.243H470.523H471.568H472.091V403.72ZM471.568 408.949H472.091V409.471H471.568H470.523H470V408.949H470.523H471.568ZM468.954 399.538H468.431V399.015H468.954V399.538ZM467.386 399.538H467.909V399.015H467.386V399.538ZM499.8 415.745C499.511 415.745 499.277 415.979 499.277 416.268C499.277 416.557 499.511 416.791 499.8 416.791C500.089 416.791 500.323 416.557 500.323 416.268C500.323 415.979 500.089 415.745 499.8 415.745ZM490.389 408.949C490.389 408.66 490.623 408.426 490.912 408.426C491.201 408.426 491.435 408.66 491.435 408.949C491.435 409.237 491.201 409.471 490.912 409.471C490.623 409.471 490.389 409.237 490.389 408.949ZM481.668 401.135L480.027 401.093L477.943 399.693L479.583 399.735L481.668 401.135ZM479.994 401.196L477.748 399.688L477.586 399.58L477.781 399.585L479.616 399.631L481.863 401.14L482.024 401.248L481.829 401.243L479.994 401.196ZM513.497 431.386L513.811 431.7L513.811 429.129L513.497 428.898L513.497 431.386ZM513.393 428.82L513.393 431.429L513.811 431.847L513.916 431.952L513.916 431.804L513.916 429.077L513.497 428.768L513.393 428.69L513.393 428.82ZM466.236 420.47C466.236 423.954 463.573 426.817 460.171 427.133V422.008C460.998 421.893 461.635 421.183 461.635 420.325C461.635 419.466 460.998 418.756 460.171 418.642V413.807C463.573 414.123 466.236 416.986 466.236 420.47ZM466.34 420.47C466.34 424.012 463.631 426.921 460.171 427.238C460.136 427.241 460.101 427.244 460.067 427.247V427.142V413.798V413.693C460.101 413.696 460.136 413.699 460.171 413.702C463.631 414.019 466.34 416.928 466.34 420.47ZM471.046 406.335C470.757 406.335 470.523 406.569 470.523 406.857C470.523 407.146 470.757 407.38 471.046 407.38C471.334 407.38 471.568 407.146 471.568 406.857C471.568 406.569 471.334 406.335 471.046 406.335Z" fill="url(#paint32_radial_787_11012)"/>
<path fill-rule="evenodd" clip-rule="evenodd" d="M262.997 447.002L265.762 449.104V451.295H262.997V451.296H262.571V410.376L296.709 392.276L301.915 377.911L333.865 359.104L348.803 359.103V359.45H334.347L302.202 378.537L296.993 392.911L262.997 410.936V447.002ZM265.23 441.247C265.48 441.247 265.657 441.42 265.657 441.604C265.657 441.787 265.48 441.961 265.23 441.961C264.979 441.961 264.802 441.787 264.802 441.604C264.802 441.42 264.979 441.247 265.23 441.247ZM265.23 441.142C265.523 441.142 265.761 441.349 265.761 441.604C265.761 441.858 265.523 442.065 265.23 442.065C264.936 442.065 264.698 441.858 264.698 441.604C264.698 441.349 264.936 441.142 265.23 441.142ZM265.657 438.834C265.657 438.651 265.48 438.477 265.23 438.477C264.979 438.477 264.802 438.651 264.802 438.834C264.802 439.018 264.979 439.191 265.23 439.191C265.48 439.191 265.657 439.018 265.657 438.834ZM265.761 438.834C265.761 438.579 265.523 438.373 265.23 438.373C264.936 438.373 264.698 438.579 264.698 438.834C264.698 439.089 264.936 439.296 265.23 439.296C265.523 439.296 265.761 439.089 265.761 438.834ZM298.725 390.373H299.87L300.852 387.604H299.707L298.725 390.373ZM305.964 401.629H307.01V399.538H305.964V401.629ZM305.441 402.152H305.964H307.01H307.532V401.629V399.538V399.015H307.01H305.964H305.441V399.538V401.629V402.152ZM305.964 402.675H305.441V403.198H305.964H307.01H307.532V402.675H307.01H305.964ZM305.441 403.72H305.964H307.01H307.532V404.243H307.01H305.964H305.441V403.72ZM305.964 408.949H305.441V409.471H305.964H307.01H307.532V408.949H307.01H305.964ZM308.578 399.538H309.101V399.015H308.578V399.538ZM310.146 399.538H309.624V399.015H310.146V399.538ZM277.733 415.745C278.021 415.745 278.255 415.979 278.255 416.268C278.255 416.557 278.021 416.791 277.733 416.791C277.444 416.791 277.21 416.557 277.21 416.268C277.21 415.979 277.444 415.745 277.733 415.745ZM287.143 408.949C287.143 408.66 286.909 408.426 286.62 408.426C286.331 408.426 286.097 408.66 286.097 408.949C286.097 409.237 286.331 409.471 286.62 409.471C286.909 409.471 287.143 409.237 287.143 408.949ZM295.865 401.135L297.505 401.093L299.589 399.693L297.949 399.735L295.865 401.135ZM297.538 401.196L299.784 399.688L299.946 399.58L299.751 399.585L297.916 399.631L295.67 401.14L295.508 401.248L295.703 401.243L297.538 401.196ZM264.035 431.386L263.721 431.7L263.721 429.129L264.035 428.898L264.035 431.386ZM264.139 428.82L264.139 431.429L263.721 431.847L263.617 431.952L263.617 431.804L263.617 429.077L264.035 428.768L264.139 428.69L264.139 428.82ZM311.297 420.47C311.297 423.954 313.96 426.817 317.361 427.133V422.008C316.534 421.893 315.897 421.183 315.897 420.325C315.897 419.466 316.534 418.756 317.361 418.642V413.807C313.96 414.123 311.297 416.986 311.297 420.47ZM311.192 420.47C311.192 424.012 313.902 426.921 317.361 427.238C317.396 427.241 317.431 427.244 317.466 427.247V427.142V413.798V413.693C317.431 413.696 317.396 413.699 317.361 413.702C313.902 414.019 311.192 416.928 311.192 420.47ZM306.487 406.335C306.776 406.335 307.01 406.569 307.01 406.857C307.01 407.146 306.776 407.38 306.487 407.38C306.198 407.38 305.964 407.146 305.964 406.857C305.964 406.569 306.198 406.335 306.487 406.335Z" fill="url(#paint33_radial_787_11012)"/>
</g>
<defs>
<filter id="filter0_d_787_11012" x="0.313293" y="0.168701" width="716.235" height="338.131" filterUnits="userSpaceOnUse" color-interpolation-filters="sRGB">
<feFlood flood-opacity="0" result="BackgroundImageFix"/>
<feColorMatrix in="SourceAlpha" type="matrix" values="0 0 0 0 0 0 0 0 0 0 0 0 0 0 0 0 0 0 127 0" result="hardAlpha"/>
<feOffset/>
<feGaussianBlur stdDeviation="2"/>
<feComposite in2="hardAlpha" operator="out"/>
<feColorMatrix type="matrix" values="0 0 0 0 0.418889 0 0 0 0 0.9338 0 0 0 0 0.966667 0 0 0 0.681282 0"/>
<feBlend mode="normal" in2="BackgroundImageFix" result="effect1_dropShadow_787_11012"/>
<feBlend mode="normal" in="SourceGraphic" in2="effect1_dropShadow_787_11012" result="shape"/>
</filter>
<filter id="filter1_f_787_11012" x="151.325" y="-3.15059" width="323.24" height="344.36" filterUnits="userSpaceOnUse" color-interpolation-filters="sRGB">
<feFlood flood-opacity="0" result="BackgroundImageFix"/>
<feBlend mode="normal" in="SourceGraphic" in2="BackgroundImageFix" result="shape"/>
<feGaussianBlur stdDeviation="3.65965" result="effect1_foregroundBlur_787_11012"/>
</filter>
<filter id="filter2_f_787_11012" x="280.458" y="35.0143" width="16.7298" height="17.7754" filterUnits="userSpaceOnUse" color-interpolation-filters="sRGB">
<feFlood flood-opacity="0" result="BackgroundImageFix"/>
<feBlend mode="normal" in="SourceGraphic" in2="BackgroundImageFix" result="shape"/>
<feGaussianBlur stdDeviation="3.65965" result="effect1_foregroundBlur_787_11012"/>
</filter>
<filter id="filter3_f_787_11012" x="280.458" y="33.9687" width="16.7298" height="15.1614" filterUnits="userSpaceOnUse" color-interpolation-filters="sRGB">
<feFlood flood-opacity="0" result="BackgroundImageFix"/>
<feBlend mode="normal" in="SourceGraphic" in2="BackgroundImageFix" result="shape"/>
<feGaussianBlur stdDeviation="3.65965" result="effect1_foregroundBlur_787_11012"/>
</filter>
<filter id="filter4_f_787_11012" x="280.458" y="32.9231" width="16.7298" height="15.1614" filterUnits="userSpaceOnUse" color-interpolation-filters="sRGB">
<feFlood flood-opacity="0" result="BackgroundImageFix"/>
<feBlend mode="normal" in="SourceGraphic" in2="BackgroundImageFix" result="shape"/>
<feGaussianBlur stdDeviation="3.65965" result="effect1_foregroundBlur_787_11012"/>
</filter>
<filter id="filter5_f_787_11012" x="280.458" y="27.695" width="16.7298" height="15.1614" filterUnits="userSpaceOnUse" color-interpolation-filters="sRGB">
<feFlood flood-opacity="0" result="BackgroundImageFix"/>
<feBlend mode="normal" in="SourceGraphic" in2="BackgroundImageFix" result="shape"/>
<feGaussianBlur stdDeviation="3.65965" result="effect1_foregroundBlur_787_11012"/>
</filter>
<filter id="filter6_f_787_11012" x="199.946" y="20.8985" width="20.9122" height="28.1919" filterUnits="userSpaceOnUse" color-interpolation-filters="sRGB">
<feFlood flood-opacity="0" result="BackgroundImageFix"/>
<feBlend mode="normal" in="SourceGraphic" in2="BackgroundImageFix" result="shape"/>
<feGaussianBlur stdDeviation="3.65965" result="effect1_foregroundBlur_787_11012"/>
</filter>
<filter id="filter7_f_787_11012" x="204.651" y="26.1266" width="16.207" height="18.0269" filterUnits="userSpaceOnUse" color-interpolation-filters="sRGB">
<feFlood flood-opacity="0" result="BackgroundImageFix"/>
<feBlend mode="normal" in="SourceGraphic" in2="BackgroundImageFix" result="shape"/>
<feGaussianBlur stdDeviation="3.65965" result="effect1_foregroundBlur_787_11012"/>
</filter>
<filter id="filter8_d_787_11012" x="138.83" y="355.103" width="499.872" height="187.671" filterUnits="userSpaceOnUse" color-interpolation-filters="sRGB">
<feFlood flood-opacity="0" result="BackgroundImageFix"/>
<feColorMatrix in="SourceAlpha" type="matrix" values="0 0 0 0 0 0 0 0 0 0 0 0 0 0 0 0 0 0 127 0" result="hardAlpha"/>
<feOffset/>
<feGaussianBlur stdDeviation="2"/>
<feComposite in2="hardAlpha" operator="out"/>
<feColorMatrix type="matrix" values="0 0 0 0 0.418889 0 0 0 0 0.9338 0 0 0 0 0.966667 0 0 0 0.681282 0"/>
<feBlend mode="normal" in2="BackgroundImageFix" result="effect1_dropShadow_787_11012"/>
<feBlend mode="normal" in="SourceGraphic" in2="effect1_dropShadow_787_11012" result="shape"/>
</filter>
<radialGradient id="paint0_radial_787_11012" cx="0" cy="0" r="1" gradientUnits="userSpaceOnUse" gradientTransform="translate(111.4 191.518) rotate(90) scale(211.048 2625.42)">
<stop stop-color="#4959EC" stop-opacity="0"/>
<stop offset="0.172108" stop-color="#545AE9"/>
<stop offset="0.495676" stop-color="#C161C9"/>
<stop offset="0.812641" stop-color="#4959EC"/>
<stop offset="1" stop-color="#4959EC" stop-opacity="0"/>
</radialGradient>
<radialGradient id="paint1_radial_787_11012" cx="0" cy="0" r="1" gradientUnits="userSpaceOnUse" gradientTransform="translate(591.184 191.518) rotate(90) scale(211.048 2975.48)">
<stop stop-color="#4959EC" stop-opacity="0"/>
<stop offset="0.172108" stop-color="#545AE9"/>
<stop offset="0.495676" stop-color="#C161C9"/>
<stop offset="0.812641" stop-color="#4959EC"/>
<stop offset="1" stop-color="#4959EC" stop-opacity="0"/>
</radialGradient>
<radialGradient id="paint2_radial_787_11012" cx="0" cy="0" r="1" gradientUnits="userSpaceOnUse" gradientTransform="translate(231.674 249.999) rotate(90) scale(108.293 1347.16)">
<stop stop-color="#4959EC" stop-opacity="0"/>
<stop offset="0.172108" stop-color="#545AE9"/>
<stop offset="0.495676" stop-color="#C161C9"/>
<stop offset="0.812641" stop-color="#4959EC"/>
<stop offset="1" stop-color="#4959EC" stop-opacity="0"/>
</radialGradient>
<radialGradient id="paint3_radial_787_11012" cx="0" cy="0" r="1" gradientUnits="userSpaceOnUse" gradientTransform="translate(477.862 249.999) rotate(90) scale(108.293 1526.78)">
<stop stop-color="#4959EC" stop-opacity="0"/>
<stop offset="0.172108" stop-color="#545AE9"/>
<stop offset="0.495676" stop-color="#C161C9"/>
<stop offset="0.812641" stop-color="#4959EC"/>
<stop offset="1" stop-color="#4959EC" stop-opacity="0"/>
</radialGradient>
<linearGradient id="paint4_linear_787_11012" x1="181.769" y1="146.218" x2="473.222" y2="169.82" gradientUnits="userSpaceOnUse">
<stop stop-color="#FF8BEC"/>
<stop offset="0.276042" stop-color="#B7ABFF" stop-opacity="0.7"/>
<stop offset="0.484375" stop-color="#FAFF00" stop-opacity="0.8"/>
<stop offset="0.640625" stop-color="#54FF65" stop-opacity="0.74"/>
<stop offset="0.822917" stop-color="#6BEEF7" stop-opacity="0.681282"/>
<stop offset="0.958333" stop-color="#E5097F" stop-opacity="0.74"/>
</linearGradient>
<linearGradient id="paint5_linear_787_11012" x1="181.769" y1="146.218" x2="473.222" y2="169.82" gradientUnits="userSpaceOnUse">
<stop stop-color="#FF8BEC"/>
<stop offset="0.276042" stop-color="#B7ABFF" stop-opacity="0.7"/>
<stop offset="0.484375" stop-color="#FAFF00" stop-opacity="0.8"/>
<stop offset="0.640625" stop-color="#54FF65" stop-opacity="0.74"/>
<stop offset="0.822917" stop-color="#6BEEF7" stop-opacity="0.681282"/>
<stop offset="0.958333" stop-color="#E5097F" stop-opacity="0.74"/>
</linearGradient>
<linearGradient id="paint6_linear_787_11012" x1="166.541" y1="38.6041" x2="170.123" y2="38.9614" gradientUnits="userSpaceOnUse">
<stop stop-color="#FF8BEC"/>
<stop offset="0.276042" stop-color="#B7ABFF" stop-opacity="0.7"/>
<stop offset="0.484375" stop-color="#FAFF00" stop-opacity="0.8"/>
<stop offset="0.640625" stop-color="#54FF65" stop-opacity="0.74"/>
<stop offset="0.822917" stop-color="#6BEEF7" stop-opacity="0.681282"/>
<stop offset="0.958333" stop-color="#E5097F" stop-opacity="0.74"/>
</linearGradient>
<linearGradient id="paint7_linear_787_11012" x1="166.541" y1="48.508" x2="170.123" y2="48.8653" gradientUnits="userSpaceOnUse">
<stop stop-color="#FF8BEC"/>
<stop offset="0.276042" stop-color="#B7ABFF" stop-opacity="0.7"/>
<stop offset="0.484375" stop-color="#FAFF00" stop-opacity="0.8"/>
<stop offset="0.640625" stop-color="#54FF65" stop-opacity="0.74"/>
<stop offset="0.822917" stop-color="#6BEEF7" stop-opacity="0.681282"/>
<stop offset="0.958333" stop-color="#E5097F" stop-opacity="0.74"/>
</linearGradient>
<linearGradient id="paint8_linear_787_11012" x1="288.6" y1="226.322" x2="295.804" y2="226.801" gradientUnits="userSpaceOnUse">
<stop stop-color="#FF8BEC"/>
<stop offset="0.276042" stop-color="#B7ABFF" stop-opacity="0.7"/>
<stop offset="0.484375" stop-color="#FAFF00" stop-opacity="0.8"/>
<stop offset="0.640625" stop-color="#54FF65" stop-opacity="0.74"/>
<stop offset="0.822917" stop-color="#6BEEF7" stop-opacity="0.681282"/>
<stop offset="0.958333" stop-color="#E5097F" stop-opacity="0.74"/>
</linearGradient>
<linearGradient id="paint9_linear_787_11012" x1="287.934" y1="43.685" x2="289.916" y2="43.7993" gradientUnits="userSpaceOnUse">
<stop stop-color="#FF8BEC"/>
<stop offset="0.276042" stop-color="#B7ABFF" stop-opacity="0.7"/>
<stop offset="0.484375" stop-color="#FAFF00" stop-opacity="0.8"/>
<stop offset="0.640625" stop-color="#54FF65" stop-opacity="0.74"/>
<stop offset="0.822917" stop-color="#6BEEF7" stop-opacity="0.681282"/>
<stop offset="0.958333" stop-color="#E5097F" stop-opacity="0.74"/>
</linearGradient>
<linearGradient id="paint10_linear_787_11012" x1="0.1567" y1="0.225234" x2="1.93204" y2="0.839641" gradientUnits="userSpaceOnUse">
<stop stop-color="#FF8BEC"/>
<stop offset="0.276042" stop-color="#B7ABFF" stop-opacity="0.7"/>
<stop offset="0.484375" stop-color="#FAFF00" stop-opacity="0.8"/>
<stop offset="0.640625" stop-color="#54FF65" stop-opacity="0.74"/>
<stop offset="0.822917" stop-color="#6BEEF7" stop-opacity="0.681282"/>
<stop offset="0.958333" stop-color="#E5097F" stop-opacity="0.74"/>
</linearGradient>
<linearGradient id="paint11_linear_787_11012" x1="0.1567" y1="0.225234" x2="1.93204" y2="0.839641" gradientUnits="userSpaceOnUse">
<stop stop-color="#FF8BEC"/>
<stop offset="0.276042" stop-color="#B7ABFF" stop-opacity="0.7"/>
<stop offset="0.484375" stop-color="#FAFF00" stop-opacity="0.8"/>
<stop offset="0.640625" stop-color="#54FF65" stop-opacity="0.74"/>
<stop offset="0.822917" stop-color="#6BEEF7" stop-opacity="0.681282"/>
<stop offset="0.958333" stop-color="#E5097F" stop-opacity="0.74"/>
</linearGradient>
<linearGradient id="paint12_linear_787_11012" x1="0.1567" y1="0.225234" x2="1.93204" y2="0.839641" gradientUnits="userSpaceOnUse">
<stop stop-color="#FF8BEC"/>
<stop offset="0.276042" stop-color="#B7ABFF" stop-opacity="0.7"/>
<stop offset="0.484375" stop-color="#FAFF00" stop-opacity="0.8"/>
<stop offset="0.640625" stop-color="#54FF65" stop-opacity="0.74"/>
<stop offset="0.822917" stop-color="#6BEEF7" stop-opacity="0.681282"/>
<stop offset="0.958333" stop-color="#E5097F" stop-opacity="0.74"/>
</linearGradient>
<linearGradient id="paint13_linear_787_11012" x1="287.934" y1="43.685" x2="289.916" y2="43.7993" gradientUnits="userSpaceOnUse">
<stop stop-color="#FF8BEC"/>
<stop offset="0.276042" stop-color="#B7ABFF" stop-opacity="0.7"/>
<stop offset="0.484375" stop-color="#FAFF00" stop-opacity="0.8"/>
<stop offset="0.640625" stop-color="#54FF65" stop-opacity="0.74"/>
<stop offset="0.822917" stop-color="#6BEEF7" stop-opacity="0.681282"/>
<stop offset="0.958333" stop-color="#E5097F" stop-opacity="0.74"/>
</linearGradient>
<linearGradient id="paint14_linear_787_11012" x1="0.1567" y1="0.225234" x2="1.93204" y2="0.839641" gradientUnits="userSpaceOnUse">
<stop stop-color="#FF8BEC"/>
<stop offset="0.276042" stop-color="#B7ABFF" stop-opacity="0.7"/>
<stop offset="0.484375" stop-color="#FAFF00" stop-opacity="0.8"/>
<stop offset="0.640625" stop-color="#54FF65" stop-opacity="0.74"/>
<stop offset="0.822917" stop-color="#6BEEF7" stop-opacity="0.681282"/>
<stop offset="0.958333" stop-color="#E5097F" stop-opacity="0.74"/>
</linearGradient>
<linearGradient id="paint15_linear_787_11012" x1="0.1567" y1="0.225234" x2="1.93204" y2="0.839641" gradientUnits="userSpaceOnUse">
<stop stop-color="#FF8BEC"/>
<stop offset="0.276042" stop-color="#B7ABFF" stop-opacity="0.7"/>
<stop offset="0.484375" stop-color="#FAFF00" stop-opacity="0.8"/>
<stop offset="0.640625" stop-color="#54FF65" stop-opacity="0.74"/>
<stop offset="0.822917" stop-color="#6BEEF7" stop-opacity="0.681282"/>
<stop offset="0.958333" stop-color="#E5097F" stop-opacity="0.74"/>
</linearGradient>
<linearGradient id="paint16_linear_787_11012" x1="0.1567" y1="0.225234" x2="1.93204" y2="0.839641" gradientUnits="userSpaceOnUse">
<stop stop-color="#FF8BEC"/>
<stop offset="0.276042" stop-color="#B7ABFF" stop-opacity="0.7"/>
<stop offset="0.484375" stop-color="#FAFF00" stop-opacity="0.8"/>
<stop offset="0.640625" stop-color="#54FF65" stop-opacity="0.74"/>
<stop offset="0.822917" stop-color="#6BEEF7" stop-opacity="0.681282"/>
<stop offset="0.958333" stop-color="#E5097F" stop-opacity="0.74"/>
</linearGradient>
<linearGradient id="paint17_linear_787_11012" x1="290.954" y1="45.1729" x2="291.447" y2="45.2155" gradientUnits="userSpaceOnUse">
<stop stop-color="#FF8BEC"/>
<stop offset="0.276042" stop-color="#B7ABFF" stop-opacity="0.7"/>
<stop offset="0.484375" stop-color="#FAFF00" stop-opacity="0.8"/>
<stop offset="0.640625" stop-color="#54FF65" stop-opacity="0.74"/>
<stop offset="0.822917" stop-color="#6BEEF7" stop-opacity="0.681282"/>
<stop offset="0.958333" stop-color="#E5097F" stop-opacity="0.74"/>
</linearGradient>
<linearGradient id="paint18_linear_787_11012" x1="291.999" y1="45.1729" x2="292.493" y2="45.2155" gradientUnits="userSpaceOnUse">
<stop stop-color="#FF8BEC"/>
<stop offset="0.276042" stop-color="#B7ABFF" stop-opacity="0.7"/>
<stop offset="0.484375" stop-color="#FAFF00" stop-opacity="0.8"/>
<stop offset="0.640625" stop-color="#54FF65" stop-opacity="0.74"/>
<stop offset="0.822917" stop-color="#6BEEF7" stop-opacity="0.681282"/>
<stop offset="0.958333" stop-color="#E5097F" stop-opacity="0.74"/>
</linearGradient>
<linearGradient id="paint19_linear_787_11012" x1="173.361" y1="39.1244" x2="174.348" y2="39.2098" gradientUnits="userSpaceOnUse">
<stop stop-color="#FF8BEC"/>
<stop offset="0.276042" stop-color="#B7ABFF" stop-opacity="0.7"/>
<stop offset="0.484375" stop-color="#FAFF00" stop-opacity="0.8"/>
<stop offset="0.640625" stop-color="#54FF65" stop-opacity="0.74"/>
<stop offset="0.822917" stop-color="#6BEEF7" stop-opacity="0.681282"/>
<stop offset="0.958333" stop-color="#E5097F" stop-opacity="0.74"/>
</linearGradient>
<linearGradient id="paint20_linear_787_11012" x1="182.249" y1="46.4437" x2="183.236" y2="46.5291" gradientUnits="userSpaceOnUse">
<stop stop-color="#FF8BEC"/>
<stop offset="0.276042" stop-color="#B7ABFF" stop-opacity="0.7"/>
<stop offset="0.484375" stop-color="#FAFF00" stop-opacity="0.8"/>
<stop offset="0.640625" stop-color="#54FF65" stop-opacity="0.74"/>
<stop offset="0.822917" stop-color="#6BEEF7" stop-opacity="0.681282"/>
<stop offset="0.958333" stop-color="#E5097F" stop-opacity="0.74"/>
</linearGradient>
<linearGradient id="paint21_linear_787_11012" x1="192.214" y1="53.8947" x2="194.634" y2="57.2278" gradientUnits="userSpaceOnUse">
<stop stop-color="#FF8BEC"/>
<stop offset="0.276042" stop-color="#B7ABFF" stop-opacity="0.7"/>
<stop offset="0.484375" stop-color="#FAFF00" stop-opacity="0.8"/>
<stop offset="0.640625" stop-color="#54FF65" stop-opacity="0.74"/>
<stop offset="0.822917" stop-color="#6BEEF7" stop-opacity="0.681282"/>
<stop offset="0.958333" stop-color="#E5097F" stop-opacity="0.74"/>
</linearGradient>
<linearGradient id="paint22_linear_787_11012" x1="159.988" y1="23.757" x2="158.692" y2="26.158" gradientUnits="userSpaceOnUse">
<stop stop-color="#FF8BEC"/>
<stop offset="0.276042" stop-color="#B7ABFF" stop-opacity="0.7"/>
<stop offset="0.484375" stop-color="#FAFF00" stop-opacity="0.8"/>
<stop offset="0.640625" stop-color="#54FF65" stop-opacity="0.74"/>
<stop offset="0.822917" stop-color="#6BEEF7" stop-opacity="0.681282"/>
<stop offset="0.958333" stop-color="#E5097F" stop-opacity="0.74"/>
</linearGradient>
<linearGradient id="paint23_linear_787_11012" x1="207.736" y1="34.0568" x2="213.69" y2="34.2953" gradientUnits="userSpaceOnUse">
<stop stop-color="#FF8BEC"/>
<stop offset="0.276042" stop-color="#B7ABFF" stop-opacity="0.7"/>
<stop offset="0.484375" stop-color="#FAFF00" stop-opacity="0.8"/>
<stop offset="0.640625" stop-color="#54FF65" stop-opacity="0.74"/>
<stop offset="0.822917" stop-color="#6BEEF7" stop-opacity="0.681282"/>
<stop offset="0.958333" stop-color="#E5097F" stop-opacity="0.74"/>
</linearGradient>
<linearGradient id="paint24_linear_787_11012" x1="207.736" y1="34.0568" x2="213.69" y2="34.2953" gradientUnits="userSpaceOnUse">
<stop stop-color="#FF8BEC"/>
<stop offset="0.276042" stop-color="#B7ABFF" stop-opacity="0.7"/>
<stop offset="0.484375" stop-color="#FAFF00" stop-opacity="0.8"/>
<stop offset="0.640625" stop-color="#54FF65" stop-opacity="0.74"/>
<stop offset="0.822917" stop-color="#6BEEF7" stop-opacity="0.681282"/>
<stop offset="0.958333" stop-color="#E5097F" stop-opacity="0.74"/>
</linearGradient>
<linearGradient id="paint25_linear_787_11012" x1="212.088" y1="34.9056" x2="213.577" y2="34.9652" gradientUnits="userSpaceOnUse">
<stop stop-color="#FF8BEC"/>
<stop offset="0.276042" stop-color="#B7ABFF" stop-opacity="0.7"/>
<stop offset="0.484375" stop-color="#FAFF00" stop-opacity="0.8"/>
<stop offset="0.640625" stop-color="#54FF65" stop-opacity="0.74"/>
<stop offset="0.822917" stop-color="#6BEEF7" stop-opacity="0.681282"/>
<stop offset="0.958333" stop-color="#E5097F" stop-opacity="0.74"/>
</linearGradient>
<linearGradient id="paint26_linear_787_11012" x1="212.088" y1="34.9056" x2="213.577" y2="34.9652" gradientUnits="userSpaceOnUse">
<stop stop-color="#FF8BEC"/>
<stop offset="0.276042" stop-color="#B7ABFF" stop-opacity="0.7"/>
<stop offset="0.484375" stop-color="#FAFF00" stop-opacity="0.8"/>
<stop offset="0.640625" stop-color="#54FF65" stop-opacity="0.74"/>
<stop offset="0.822917" stop-color="#6BEEF7" stop-opacity="0.681282"/>
<stop offset="0.958333" stop-color="#E5097F" stop-opacity="0.74"/>
</linearGradient>
<linearGradient id="paint27_linear_787_11012" x1="212.088" y1="34.9056" x2="213.577" y2="34.9652" gradientUnits="userSpaceOnUse">
<stop stop-color="#FF8BEC"/>
<stop offset="0.276042" stop-color="#B7ABFF" stop-opacity="0.7"/>
<stop offset="0.484375" stop-color="#FAFF00" stop-opacity="0.8"/>
<stop offset="0.640625" stop-color="#54FF65" stop-opacity="0.74"/>
<stop offset="0.822917" stop-color="#6BEEF7" stop-opacity="0.681282"/>
<stop offset="0.958333" stop-color="#E5097F" stop-opacity="0.74"/>
</linearGradient>
<linearGradient id="paint28_linear_787_11012" x1="212.088" y1="34.9056" x2="213.577" y2="34.9652" gradientUnits="userSpaceOnUse">
<stop stop-color="#FF8BEC"/>
<stop offset="0.276042" stop-color="#B7ABFF" stop-opacity="0.7"/>
<stop offset="0.484375" stop-color="#FAFF00" stop-opacity="0.8"/>
<stop offset="0.640625" stop-color="#54FF65" stop-opacity="0.74"/>
<stop offset="0.822917" stop-color="#6BEEF7" stop-opacity="0.681282"/>
<stop offset="0.958333" stop-color="#E5097F" stop-opacity="0.74"/>
</linearGradient>
<linearGradient id="paint29_linear_787_11012" x1="288.379" y1="37.556" x2="289.366" y2="37.6414" gradientUnits="userSpaceOnUse">
<stop stop-color="#FF8BEC"/>
<stop offset="0.276042" stop-color="#B7ABFF" stop-opacity="0.7"/>
<stop offset="0.484375" stop-color="#FAFF00" stop-opacity="0.8"/>
<stop offset="0.640625" stop-color="#54FF65" stop-opacity="0.74"/>
<stop offset="0.822917" stop-color="#6BEEF7" stop-opacity="0.681282"/>
<stop offset="0.958333" stop-color="#E5097F" stop-opacity="0.74"/>
</linearGradient>
<radialGradient id="paint30_radial_787_11012" cx="0" cy="0" r="1" gradientUnits="userSpaceOnUse" gradientTransform="translate(560.331 442.522) rotate(-90) scale(146.574 1823.37)">
<stop stop-color="#4959EC" stop-opacity="0"/>
<stop offset="0.172108" stop-color="#545AE9"/>
<stop offset="0.495676" stop-color="#C161C9"/>
<stop offset="0.812641" stop-color="#4959EC"/>
<stop offset="1" stop-color="#4959EC" stop-opacity="0"/>
</radialGradient>
<radialGradient id="paint31_radial_787_11012" cx="0" cy="0" r="1" gradientUnits="userSpaceOnUse" gradientTransform="translate(227.118 442.522) rotate(-90) scale(146.574 2066.48)">
<stop stop-color="#4959EC" stop-opacity="0"/>
<stop offset="0.172108" stop-color="#545AE9"/>
<stop offset="0.495676" stop-color="#C161C9"/>
<stop offset="0.812641" stop-color="#4959EC"/>
<stop offset="1" stop-color="#4959EC" stop-opacity="0"/>
</radialGradient>
<radialGradient id="paint32_radial_787_11012" cx="0" cy="0" r="1" gradientUnits="userSpaceOnUse" gradientTransform="translate(476.8 401.907) rotate(-90) scale(75.21 935.607)">
<stop stop-color="#4959EC" stop-opacity="0"/>
<stop offset="0.172108" stop-color="#545AE9"/>
<stop offset="0.495676" stop-color="#C161C9"/>
<stop offset="0.812641" stop-color="#4959EC"/>
<stop offset="1" stop-color="#4959EC" stop-opacity="0"/>
</radialGradient>
<radialGradient id="paint33_radial_787_11012" cx="0" cy="0" r="1" gradientUnits="userSpaceOnUse" gradientTransform="translate(305.821 401.907) rotate(-90) scale(75.21 1060.35)">
<stop stop-color="#4959EC" stop-opacity="0"/>
<stop offset="0.172108" stop-color="#545AE9"/>
<stop offset="0.495676" stop-color="#C161C9"/>
<stop offset="0.812641" stop-color="#4959EC"/>
<stop offset="1" stop-color="#4959EC" stop-opacity="0"/>
</radialGradient>
<clipPath id="clip0_787_11012">
<rect width="399.573" height="330.131" fill="white" transform="translate(158.644 4.1687)"/>
</clipPath>
</defs>
</svg>
